<?xml version="1.0" encoding="UTF-8" standalone="no"?>
<svg
   xmlns:dc="http://purl.org/dc/elements/1.1/"
   xmlns:cc="http://creativecommons.org/ns#"
   xmlns:rdf="http://www.w3.org/1999/02/22-rdf-syntax-ns#"
   xmlns:svg="http://www.w3.org/2000/svg"
   xmlns="http://www.w3.org/2000/svg"
   xmlns:sodipodi="http://sodipodi.sourceforge.net/DTD/sodipodi-0.dtd"
   xmlns:inkscape="http://www.inkscape.org/namespaces/inkscape"
   inkscape:export-ydpi="300.00299"
   inkscape:export-xdpi="300.00299"
   inkscape:export-filename="/home/makism/Github/mtggg/project/assets/Sets/m20.png"
   inkscape:version="1.0rc1 (09960d6f05, 2020-04-09)"
   sodipodi:docname="m20.svg"
   id="svg6"
   height="612.85718"
   width="1355.4628"
   version="1.1">
  <metadata
     id="metadata12">
    <rdf:RDF>
      <cc:Work
         rdf:about="">
        <dc:format>image/svg+xml</dc:format>
        <dc:type
           rdf:resource="http://purl.org/dc/dcmitype/StillImage" />
      </cc:Work>
    </rdf:RDF>
  </metadata>
  <defs
     id="defs10" />
  <sodipodi:namedview
     inkscape:current-layer="svg6"
     inkscape:window-maximized="1"
     inkscape:window-y="34"
     inkscape:window-x="0"
     inkscape:cy="306.42859"
     inkscape:cx="653.79865"
     inkscape:zoom="0.91924325"
     inkscape:guide-bbox="true"
     showguides="true"
     showgrid="false"
     id="namedview8"
     inkscape:window-height="1020"
     inkscape:window-width="1920"
     inkscape:pageshadow="2"
     inkscape:pageopacity="0"
     guidetolerance="10"
     gridtolerance="10"
     objecttolerance="10"
     borderopacity="1"
     bordercolor="#666666"
     pagecolor="#ffffff" />
  <path
     inkscape:connector-curvature="0"
     id="path4"
     style="fill:#000000;stroke-width:1"
     d="m 94.257811,35.71875 c 0,0 -58.781249,124.64175 -58.781249,270.71875 0,146.077 58.781249,270 58.781249,270 H 1260.1016 c 0,0 60.7187,-123.923 60.7187,-270 0,-146.077 -60.7187,-270.71875 -60.7187,-270.71875 z M 915.75779,88.712891 c 47.9389,0 104.98511,27.917059 104.97071,76.261719 -0.014,48.34465 -3.2482,53.39729 -121.44921,180.49609 h 89.80467 l 19.99804,-45.83789 c 0,0 9.843,-2.5992 11.6465,0 V 402.60156 H 816.49998 l -3.98633,-8.66601 C 910.12134,283.06077 947.34178,204.32158 947.34178,173.7168 c 0,-30.60478 -7.49156,-50.03711 -33.54883,-50.03711 -26.05726,0 -33.45117,29.58822 -33.45117,39.77148 0,10.18325 0.39978,16.24405 5.64647,24.12891 l -10.06054,11.625 -54.14257,-70.17188 c 23.14021,-19.82435 51.79722,-40.320309 93.97265,-40.320309 z m 239.49221,0 c 65.5838,0 118.75,57.461839 118.75,159.318359 0,101.85652 -53.1662,159.32031 -118.75,159.32031 -65.5838,0 -118.75,-57.46379 -118.75,-159.32031 0,-101.85652 53.1662,-159.318359 118.75,-159.318359 z M 234.66406,93.21875 h 165.18749 c 5.03381,1e-5 9.51013,2.45745 11.3125,6.90625 0.005,0.0129 0.0262,0.0183 0.0312,0.0312 L 481.1328,274.75 c 2.89749,7.23305 5.10539,7.30417 8.21875,0.25 l 0.12499,-0.25 48.90625,-112.8125 c 0.53115,-1.22511 1.05551,-2.43227 1.56251,-3.65625 6.37142,-15.38212 9.15763,-31.11983 -33.75001,-58.4375 0.0614,-0.004 0.12607,0.004 0.18751,0 -3.81566,-2.82178 -7.13975,-6.625 4.15625,-6.625 h 190.8125 c 7.41778,0 7.91851,2.82931 0.68749,7.34375 0.007,0.012 0.0241,0.0194 0.0313,0.0312 l -2.21876,1.375 c -25.95394,16.20344 -28.94155,34.19486 -13.6875,71.9375 l 100.84375,249.53125 c 0.0855,0.21146 0.16416,0.41483 0.25,0.625 9.74528,23.86009 22.00916,39.5434 50.5,70.53125 0.78311,0.85168 1.48826,1.60109 2.125,2.3125 4.45722,4.9799 4.99493,6.6475 -2.81249,6.65625 h -205.9375 -1.43751 c -7.01362,-0.20644 -9.78888,-2.09317 1.06251,-9.28125 31.42943,-23.6768 28.59755,-46.92285 12.12499,-87.96875 l -0.125,-0.28125 -58.46874,-145.4375 -0.78126,-1.90625 c -3.89963,-8.75552 -6.92213,-8.2812 -11.24999,1.375 -0.0823,0.18362 -0.16674,0.34097 -0.25,0.53125 L 457.78906,521.875 c -0.15119,0.10037 -0.21252,0.21119 -0.15626,0.3125 -5.94731,13.60325 -7.7966,13.78903 -13.15625,0.625 -0.088,-0.21601 -0.16013,-0.40178 -0.25,-0.625 0.0833,-0.13038 0.0119,-0.2778 -0.15625,-0.40625 L 338.91406,260.59375 338.60155,259.875 c -4.18525,-10.03096 -7.29359,-9.88469 -11.87499,0.46875 -0.0394,0.089 -0.0854,0.15946 -0.125,0.25 L 263.57031,404.625 c -0.0419,0.0957 -0.0836,0.18564 -0.125,0.28125 -13.73204,31.72751 0.6694,56.28003 46.12499,90.84375 -0.0213,0.0294 -0.0416,0.0645 -0.0625,0.0937 5.73295,4.11562 7.98377,7.71875 -2.46876,7.71875 H 123.85156 c -6.73778,0 -7.14587,-0.95646 -1.40625,-6.96875 26.14219,-27.40999 46.20533,-50.61806 58.99999,-79.5 l 99.21875,-224.0312 c -0.008,-0.004 -0.0232,0.004 -0.0312,0 1.12493,-2.5402 2.22808,-4.96418 3.24999,-7.3125 15.32881,-35.22472 17.53012,-50.023 -38.90625,-78.96875 l -10.96875,-5.625 c -0.0433,-0.0222 -0.0821,-0.0402 -0.125,-0.0625 -6.96565,-3.61933 -7.78403,-7.875 0.78126,-7.875 z M 1155.25,123.67969 c -33.8744,0 -42.5098,33.45624 -42.5098,124.35156 0,90.89532 8.6354,124.35352 42.5098,124.35352 33.8744,0 42.5098,-33.4582 42.5098,-124.35352 0,-90.89532 -8.6354,-124.35156 -42.5098,-124.35156 z" />
</svg>
